<mxfile host="app.diagrams.net" modified="2023-01-13T07:32:16.716Z" agent="5.0 (Macintosh; Intel Mac OS X 10_13_6) AppleWebKit/605.1.15 (KHTML, like Gecko) Version/13.1.2 Safari/605.1.15" etag="EHELOtlsKVrrmcbGDt0V" version="20.8.5" type="github">
  <diagram id="yrK9uavTjPa_yTTO9jQt" name="第 1 页">
    <mxGraphModel dx="1434" dy="1078" grid="1" gridSize="10" guides="1" tooltips="1" connect="1" arrows="1" fold="1" page="1" pageScale="1" pageWidth="827" pageHeight="1169" math="0" shadow="0">
      <root>
        <mxCell id="0" />
        <mxCell id="1" parent="0" />
        <mxCell id="0VLczRj3c2UmXXNUoKyK-3" value="root" style="ellipse;whiteSpace=wrap;html=1;aspect=fixed;direction=west;fillColor=#dae8fc;strokeColor=#6c8ebf;" parent="1" vertex="1">
          <mxGeometry x="389" y="350" width="50" height="50" as="geometry" />
        </mxCell>
        <mxCell id="0VLczRj3c2UmXXNUoKyK-4" value="" style="ellipse;whiteSpace=wrap;html=1;aspect=fixed;fillColor=#dae8fc;strokeColor=#6c8ebf;" parent="1" vertex="1">
          <mxGeometry x="330" y="420" width="50" height="50" as="geometry" />
        </mxCell>
        <mxCell id="0VLczRj3c2UmXXNUoKyK-5" value="" style="ellipse;whiteSpace=wrap;html=1;aspect=fixed;fillColor=#dae8fc;strokeColor=#6c8ebf;" parent="1" vertex="1">
          <mxGeometry x="450" y="420" width="50" height="50" as="geometry" />
        </mxCell>
        <mxCell id="0VLczRj3c2UmXXNUoKyK-6" value="" style="ellipse;whiteSpace=wrap;html=1;aspect=fixed;fillColor=#dae8fc;strokeColor=#6c8ebf;" parent="1" vertex="1">
          <mxGeometry x="270" y="480" width="50" height="50" as="geometry" />
        </mxCell>
        <mxCell id="0VLczRj3c2UmXXNUoKyK-7" value="" style="ellipse;whiteSpace=wrap;html=1;aspect=fixed;fillColor=#dae8fc;strokeColor=#6c8ebf;" parent="1" vertex="1">
          <mxGeometry x="400" y="480" width="50" height="50" as="geometry" />
        </mxCell>
        <mxCell id="0VLczRj3c2UmXXNUoKyK-8" value="" style="ellipse;whiteSpace=wrap;html=1;aspect=fixed;fillColor=#dae8fc;strokeColor=#6c8ebf;" parent="1" vertex="1">
          <mxGeometry x="350" y="550" width="50" height="50" as="geometry" />
        </mxCell>
        <mxCell id="0VLczRj3c2UmXXNUoKyK-9" value="" style="ellipse;whiteSpace=wrap;html=1;aspect=fixed;fillColor=#dae8fc;strokeColor=#6c8ebf;" parent="1" vertex="1">
          <mxGeometry x="450" y="550" width="50" height="50" as="geometry" />
        </mxCell>
      </root>
    </mxGraphModel>
  </diagram>
</mxfile>
